<svg xmlns="http://www.w3.org/2000/svg" viewBox="0 0 720 200" width="720" height="200" preserveAspectRatio="xMaxYMid slice" xmlns:c2pa="http://c2pa.org/manifest"><metadata><c2pa:manifest>AAAWgmp1bWIAAAAeanVtZGMycGEAEQAQgAAAqgA4m3EDYzJwYQAAABZcanVtYgAAAEdqdW1kYzJtYQARABCAAACqADibcQN1cm46YzJwYTozZTI1NTQ0ZS0zZmEwLTQ1YWUtOTc3My1mOTRkOThlZDlhNmYAAAADl2p1bWIAAAApanVtZGMyYXMAEQAQgAAAqgA4m3EDYzJwYS5hc3NlcnRpb25zAAAAALxqdW1iAAAARGp1bWRjYm9yABEAEIAAAKoAOJtxE2MycGEuaW5ncmVkaWVudC52MwAAAAAYYzJzaG/Sma2tbs1mOEixHJtymksAAABwY2JvcqNpZGM6Zm9ybWF0bWltYWdlL3N2Zyt4bWxqaW5zdGFuY2VJRHgseG1wOmlpZDo1MzYwMGIwMC1iMmFiLTQzYTQtOWI4Ni01NWJlZmI1ODMwMDRscmVsYXRpb25zaGlwaHBhcmVudE9mAAAB4mp1bWIAAABBanVtZGNib3IAEQAQgAAAqgA4m3ETYzJwYS5hY3Rpb25zLnYyAAAAABhjMnNoXHPuHTHTKCO1xpOvhZThmQAAAZljYm9yomdhY3Rpb25zgqJmYWN0aW9ua2MycGEub3BlbmVkanBhcmFtZXRlcnOha2luZ3JlZGllbnRzgaJjdXJseC1zZWxmI2p1bWJmPWMycGEuYXNzZXJ0aW9ucy9jMnBhLmluZ3JlZGllbnQudjNkaGFzaFggkhT367OY4LdftJ0eLYdGQ7bofyoLswwpKiMWQFpQz0ykZmFjdGlvbngdY29tLmFudGhyb3BpYy5jbGF1ZGUucHJvdmlkZWRqcGFyYW1ldGVyc6F4H2NvbS5hbnRocm9waWMub3JpZ2luLWNvbmZpZGVuY2VndW5rbm93bmtkZXNjcmlwdGlvbnhmQ2xhdWRlIHByb3ZpZGVkIHRoaXMgZmlsZSBhdCB0aGUgcmVxdWVzdCBvZiBhIHVzZXIgYW5kIG1heSBoYXZlIGNyZWF0ZWQgb3IgbW9kaWZpZWQgdGhlIGZpbGUgY29udGVudHMubXNvZnR3YXJlQWdlbnShZG5hbWVmQ2xhdWRlcmFsbEFjdGlvbnNJbmNsdWRlZPUAAADIanVtYgAAAEBqdW1kY2JvcgARABCAAACqADibcRNjMnBhLmhhc2guZGF0YQAAAAAYYzJzaJMqsv0TAg4YvpTwsGAbfuEAAACAY2JvcqVjYWxnZnNoYTI1NmNwYWRNAAAAAAAAAAAAAAAAAGRoYXNoWCCBpYbDLZCOIPO2jOjc0ao+bYfl4pP0XODCczjZ9HwghGRuYW1lbmp1bWJmIG1hbmlmZXN0amV4Y2x1c2lvbnOBomVzdGFydBi7Zmxlbmd0aBkeBAAAAj5qdW1iAAAAJ2p1bWRjMmNsABEAEIAAAKoAOJtxA2MycGEuY2xhaW0udjIAAAACD2Nib3KlY2FsZ2ZzaGEyNTZpc2lnbmF0dXJleE1zZWxmI2p1bWJmPS9jMnBhL3VybjpjMnBhOjNlMjU1NDRlLTNmYTAtNDVhZS05NzczLWY5NGQ5OGVkOWE2Zi9jMnBhLnNpZ25hdHVyZWppbnN0YW5jZUlEeCx4bXA6aWlkOmE1YjQ4Y2U3LTA1YjAtNDIzMS04NzhlLWQzNjc2ZmVmODZhMXJjcmVhdGVkX2Fzc2VydGlvbnODomN1cmx4LXNlbGYjanVtYmY9YzJwYS5hc3NlcnRpb25zL2MycGEuaW5ncmVkaWVudC52M2RoYXNoWCCSFPfrs5jgt1+0nR4th0ZDtuh/KguzDCkqIxZAWlDPTKJjdXJseCpzZWxmI2p1bWJmPWMycGEuYXNzZXJ0aW9ucy9jMnBhLmFjdGlvbnMudjJkaGFzaFggMe8gB4xATili7p1cjteiPwZzIRTtG6qoldE6QLuQRtWiY3VybHgpc2VsZiNqdW1iZj1jMnBhLmFzc2VydGlvbnMvYzJwYS5oYXNoLmRhdGFkaGFzaFggGF5NFTBdjsGbWXxZ6+mf7ji2+LI7Ph00dqlsenb+ped0Y2xhaW1fZ2VuZXJhdG9yX2luZm+jZG5hbWVvQW50aHJvcGljIEZpbGVzZ3ZlcnNpb25lMS4wLjBrc3BlY1ZlcnNpb25lMi40LjAAABA4anVtYgAAAChqdW1kYzJjcwARABCAAACqADibcQNjMnBhLnNpZ25hdHVyZQAAABAIY2JvctKEWQISogEmGCFZAgowggIGMIIBjaADAgECAhRA5aAK7sI50L64g/oGQgU9Z1UTADAKBggqhkjOPQQDAzBJMRcwFQYDVQQKEw5BbnRocm9waWMsIFBCQzEuMCwGA1UEAxMlQW50aHJvcGljIENvbnRlbnQgQ3JlZGVudGlhbHMgUm9vdCBDQTAeFw0yNjA4MDcxODQzNTZaFw0yODA4MDYxOTQzNTZaMEQxFzAVBgNVBAoTDkFudGhyb3BpYywgUEJDMSkwJwYDVQQDEyBBbnRocm9waWMgQ2xhdWRlIENvbnRlbnQgU2lnbmluZzBZMBMGByqGSM49AgEGCCqGSM49AwEHA0IABJh6CmvLUBgFFNU0vUKlOVtE6djd17L5SuwX0LemFisBM3dkd/3cyjxFA3Qo5S46fX0/ihY0VZ7mfb9KF703t5OjWDBWMA4GA1UdDwEB/wQEAwIHgDAVBgNVHSUEDjAMBgorBgEEAYPoXgIBMAwGA1UdEwEB/wQCMAAwHwYDVR0jBBgwFoAUzlHiBIFOZFsj+OPEz5o+nMHXXMIwCgYIKoZIzj0EAwMDZwAwZAIwMXMdFJ4BetLLVY7ORuE9noqbbAZOZn/aArXyTwFAZfKrPzxF2vPoJNf1+UCdg1XGAjBwX1zd9WGqYkqmL5SFqw1QySjr1zJfpJM9+1rdDwSPLMOPOjKuiXjoU/pUUeG9RwmhY3BhZFkNngAAAAAAAAAAAAAAAAAAAAAAAAAAAAAAAAAAAAAAAAAAAAAAAAAAAAAAAAAAAAAAAAAAAAAAAAAAAAAAAAAAAAAAAAAAAAAAAAAAAAAAAAAAAAAAAAAAAAAAAAAAAAAAAAAAAAAAAAAAAAAAAAAAAAAAAAAAAAAAAAAAAAAAAAAAAAAAAAAAAAAAAAAAAAAAAAAAAAAAAAAAAAAAAAAAAAAAAAAAAAAAAAAAAAAAAAAAAAAAAAAAAAAAAAAAAAAAAAAAAAAAAAAAAAAAAAAAAAAAAAAAAAAAAAAAAAAAAAAAAAAAAAAAAAAAAAAAAAAAAAAAAAAAAAAAAAAAAAAAAAAAAAAAAAAAAAAAAAAAAAAAAAAAAAAAAAAAAAAAAAAAAAAAAAAAAAAAAAAAAAAAAAAAAAAAAAAAAAAAAAAAAAAAAAAAAAAAAAAAAAAAAAAAAAAAAAAAAAAAAAAAAAAAAAAAAAAAAAAAAAAAAAAAAAAAAAAAAAAAAAAAAAAAAAAAAAAAAAAAAAAAAAAAAAAAAAAAAAAAAAAAAAAAAAAAAAAAAAAAAAAAAAAAAAAAAAAAAAAAAAAAAAAAAAAAAAAAAAAAAAAAAAAAAAAAAAAAAAAAAAAAAAAAAAAAAAAAAAAAAAAAAAAAAAAAAAAAAAAAAAAAAAAAAAAAAAAAAAAAAAAAAAAAAAAAAAAAAAAAAAAAAAAAAAAAAAAAAAAAAAAAAAAAAAAAAAAAAAAAAAAAAAAAAAAAAAAAAAAAAAAAAAAAAAAAAAAAAAAAAAAAAAAAAAAAAAAAAAAAAAAAAAAAAAAAAAAAAAAAAAAAAAAAAAAAAAAAAAAAAAAAAAAAAAAAAAAAAAAAAAAAAAAAAAAAAAAAAAAAAAAAAAAAAAAAAAAAAAAAAAAAAAAAAAAAAAAAAAAAAAAAAAAAAAAAAAAAAAAAAAAAAAAAAAAAAAAAAAAAAAAAAAAAAAAAAAAAAAAAAAAAAAAAAAAAAAAAAAAAAAAAAAAAAAAAAAAAAAAAAAAAAAAAAAAAAAAAAAAAAAAAAAAAAAAAAAAAAAAAAAAAAAAAAAAAAAAAAAAAAAAAAAAAAAAAAAAAAAAAAAAAAAAAAAAAAAAAAAAAAAAAAAAAAAAAAAAAAAAAAAAAAAAAAAAAAAAAAAAAAAAAAAAAAAAAAAAAAAAAAAAAAAAAAAAAAAAAAAAAAAAAAAAAAAAAAAAAAAAAAAAAAAAAAAAAAAAAAAAAAAAAAAAAAAAAAAAAAAAAAAAAAAAAAAAAAAAAAAAAAAAAAAAAAAAAAAAAAAAAAAAAAAAAAAAAAAAAAAAAAAAAAAAAAAAAAAAAAAAAAAAAAAAAAAAAAAAAAAAAAAAAAAAAAAAAAAAAAAAAAAAAAAAAAAAAAAAAAAAAAAAAAAAAAAAAAAAAAAAAAAAAAAAAAAAAAAAAAAAAAAAAAAAAAAAAAAAAAAAAAAAAAAAAAAAAAAAAAAAAAAAAAAAAAAAAAAAAAAAAAAAAAAAAAAAAAAAAAAAAAAAAAAAAAAAAAAAAAAAAAAAAAAAAAAAAAAAAAAAAAAAAAAAAAAAAAAAAAAAAAAAAAAAAAAAAAAAAAAAAAAAAAAAAAAAAAAAAAAAAAAAAAAAAAAAAAAAAAAAAAAAAAAAAAAAAAAAAAAAAAAAAAAAAAAAAAAAAAAAAAAAAAAAAAAAAAAAAAAAAAAAAAAAAAAAAAAAAAAAAAAAAAAAAAAAAAAAAAAAAAAAAAAAAAAAAAAAAAAAAAAAAAAAAAAAAAAAAAAAAAAAAAAAAAAAAAAAAAAAAAAAAAAAAAAAAAAAAAAAAAAAAAAAAAAAAAAAAAAAAAAAAAAAAAAAAAAAAAAAAAAAAAAAAAAAAAAAAAAAAAAAAAAAAAAAAAAAAAAAAAAAAAAAAAAAAAAAAAAAAAAAAAAAAAAAAAAAAAAAAAAAAAAAAAAAAAAAAAAAAAAAAAAAAAAAAAAAAAAAAAAAAAAAAAAAAAAAAAAAAAAAAAAAAAAAAAAAAAAAAAAAAAAAAAAAAAAAAAAAAAAAAAAAAAAAAAAAAAAAAAAAAAAAAAAAAAAAAAAAAAAAAAAAAAAAAAAAAAAAAAAAAAAAAAAAAAAAAAAAAAAAAAAAAAAAAAAAAAAAAAAAAAAAAAAAAAAAAAAAAAAAAAAAAAAAAAAAAAAAAAAAAAAAAAAAAAAAAAAAAAAAAAAAAAAAAAAAAAAAAAAAAAAAAAAAAAAAAAAAAAAAAAAAAAAAAAAAAAAAAAAAAAAAAAAAAAAAAAAAAAAAAAAAAAAAAAAAAAAAAAAAAAAAAAAAAAAAAAAAAAAAAAAAAAAAAAAAAAAAAAAAAAAAAAAAAAAAAAAAAAAAAAAAAAAAAAAAAAAAAAAAAAAAAAAAAAAAAAAAAAAAAAAAAAAAAAAAAAAAAAAAAAAAAAAAAAAAAAAAAAAAAAAAAAAAAAAAAAAAAAAAAAAAAAAAAAAAAAAAAAAAAAAAAAAAAAAAAAAAAAAAAAAAAAAAAAAAAAAAAAAAAAAAAAAAAAAAAAAAAAAAAAAAAAAAAAAAAAAAAAAAAAAAAAAAAAAAAAAAAAAAAAAAAAAAAAAAAAAAAAAAAAAAAAAAAAAAAAAAAAAAAAAAAAAAAAAAAAAAAAAAAAAAAAAAAAAAAAAAAAAAAAAAAAAAAAAAAAAAAAAAAAAAAAAAAAAAAAAAAAAAAAAAAAAAAAAAAAAAAAAAAAAAAAAAAAAAAAAAAAAAAAAAAAAAAAAAAAAAAAAAAAAAAAAAAAAAAAAAAAAAAAAAAAAAAAAAAAAAAAAAAAAAAAAAAAAAAAAAAAAAAAAAAAAAAAAAAAAAAAAAAAAAAAAAAAAAAAAAAAAAAAAAAAAAAAAAAAAAAAAAAAAAAAAAAAAAAAAAAAAAAAAAAAAAAAAAAAAAAAAAAAAAAAAAAAAAAAAAAAAAAAAAAAAAAAAAAAAAAAAAAAAAAAAAAAAAAAAAAAAAAAAAAAAAAAAAAAAAAAAAAAAAAAAAAAAAAAAAAAAAAAAAAAAAAAAAAAAAAAAAAAAAAAAAAAAAAAAAAAAAAAAAAAAAAAAAAAAAAAAAAAAAAAAAAAAAAAAAAAAAAAAAAAAAAAAAAAAAAAAAAAAAAAAAAAAAAAAAAAAAAAAAAAAAAAAAAAAAAAAAAAAAAAAAAAAAAAAAAAAAAAAAAAAAAAAAAAAAAAAAAAAAAAAAAAAAAAAAAAAAAAAAAAAAAAAAAAAAAAAAAAAAAAAAAAAAAAAAAAAAAAAAAAAAAAAAAAAAAAAAAAAAAAAAAAAAAAAAAAAAAAAAAAAAAAAAAAAAAAAAAAAAAAAAAAAAAAAAAAAAAAAAAAAAAAAAAAAAAAAAAAAAAAAAAAAAAAAAAAAAAAAAAAAAAAAAAAAAAAAAAAAAAAAAAAAAAAAAAAAAAAAAAAAAAAAAAAAAAAAAAAAAAAAAAAAAAAAAAAAAAAAAAAAAAAAAAAAAAAAAAAAAAAAAAAAAAAAAAAAAAAAAAAAAAAAAAAAAAAAAAAAAAAAAAAAAAAAAAAAAAAAAAAAAAAAAAAAAAAAAAAAAAAAAAAAAAAAAAAAAAAAAAAAAAAAAAAAAAAAAAAAAAAAAAAAAAAAAAAAAAAAAAAAAAAAAAAAAAAAAAAAAAAAAAAAAAAAAAAAAAAAAAAAAAAAAAAAAAAAAAAAAAAAAAAAAAAAAAAAAAAAAAAAAAAAAAAAAAAAAAAAAAAAAAAAAAAAAAAAAAAAAAAAAAAAAAAAAAAAAAAAAAAAAAAAAAAAAAAAAAAAAAAAAAAAAAAAAAAAAAAAAAAAAAAAAAAAAAAAAAAAAAAAAAAAAAAAAAAAAAAAAAAAAAAAAAAAAAAAAAAAAAAAAAAAAAAAAAAAAAAAAAAAAAAAAAAAAAAAAAAAAAAAAAAAAAAAAAAAAAAAAAAAAAAAAAAAAAAAAAAAAAAAAAAAAAAAAAAAAAAAAAAAAAAAAAAAAAAAAAAAAAAAAAAAAAAAAAAAAAAAAAAAAAAAAAAAAAAAAAAAAAAAAAAAAAAAAAAAAAAAAAAAAAAAAAAAAAAAAAAAAAAAAAAAAAAAAAAAAAAAAAAAAAAAAAAAAAAAAAAAAAAAAAAAAAAAAAAAAAAAAAAAAAAAAAAAAAAAAAAAAAAAAAAAAAAAAAAAAAAAAAAAAAAAAAAAAAAAAAAAAAAAAAAAAAAAAAAAAAAAAAAAAAAAAAAAAAAAAAAAAAAAAAAAAAAAAAAAAAAAAAAAAAAAAAAAAAAAAAAAAAAAAAAAAAAAAAAAAAAAAAAAAAAAAAAAAAAAAAAAAAAAAAAAAAAAAAAAAAAAAAAAAAAAAAAAAAAAAAAAAAAAAAAAAAAAAAAAAAAAAAAAAAAAAAAAAAAAAAAAAAAAAAAAAAAAAAAAAAAAAAAAAAAAAAAAAAAAAAAAAAAAAAAAAAAAAAAAAAAAAAAAAAAAAAAAAAAAAAAAAAAAAAAAAAAAAAAAAAAAAAAAAAAAAAAAAAAAAAAAAAAAAAAAAAAAAAAAAAAAAAAAAAAAAAAAAAAAAAAAAAAAAAAAAAAAAAAAAAAAAAAAAAAAAAAAAAAAAAAAAAAAAAAAAAAAAAAAAAAAAAAAAAAAAAAAAAAAAAAAAAAAAAAAAAAAAAAAAAAAAAAPZYQBsfOeO6kxr+czZy0sgXnRGlKn1W7m2ByyikpijQ02TVBtViW1T8fdCd2ak2YeZfhD5PU516AAEbrxSxZZWUxpc=</c2pa:manifest></metadata>
<defs><linearGradient id="bg" x1="0" y1="0" x2="1" y2="1"><stop offset="0" stop-color="#E2F6E9"/><stop offset="1" stop-color="#A9E3C0"/></linearGradient></defs>
<rect width="720" height="200" fill="url(#bg)"/>
<circle cx="402" cy="190" r="4" fill="#3DBE78" opacity="0.18"/><circle cx="36" cy="167" r="9" fill="#3DBE78" opacity="0.28"/><circle cx="254" cy="121" r="6" fill="#3DBE78" opacity="0.28"/><circle cx="268" cy="161" r="9" fill="#3DBE78" opacity="0.4"/><circle cx="393" cy="100" r="4" fill="#3DBE78" opacity="0.18"/><circle cx="153" cy="186" r="13" fill="#3DBE78" opacity="0.28"/><circle cx="375" cy="105" r="6" fill="#3DBE78" opacity="0.18"/><circle cx="97" cy="35" r="6" fill="#3DBE78" opacity="0.18"/><circle cx="214" cy="72" r="6" fill="#3DBE78" opacity="0.28"/><circle cx="335" cy="147" r="9" fill="#3DBE78" opacity="0.4"/><circle cx="149" cy="196" r="13" fill="#3DBE78" opacity="0.18"/><circle cx="401" cy="80" r="13" fill="#3DBE78" opacity="0.4"/><circle cx="223" cy="98" r="13" fill="#3DBE78" opacity="0.4"/><circle cx="216" cy="159" r="13" fill="#3DBE78" opacity="0.28"/><circle cx="147" cy="145" r="13" fill="#3DBE78" opacity="0.28"/><circle cx="277" cy="188" r="6" fill="#3DBE78" opacity="0.4"/><circle cx="113" cy="182" r="9" fill="#3DBE78" opacity="0.28"/><circle cx="402" cy="141" r="13" fill="#3DBE78" opacity="0.28"/><circle cx="307" cy="98" r="9" fill="#3DBE78" opacity="0.4"/><circle cx="262" cy="15" r="9" fill="#3DBE78" opacity="0.4"/><circle cx="4" cy="163" r="4" fill="#3DBE78" opacity="0.18"/><circle cx="241" cy="10" r="6" fill="#3DBE78" opacity="0.4"/><circle cx="368" cy="21" r="6" fill="#3DBE78" opacity="0.28"/><circle cx="103" cy="42" r="4" fill="#3DBE78" opacity="0.28"/><circle cx="377" cy="152" r="4" fill="#3DBE78" opacity="0.28"/><circle cx="151" cy="50" r="4" fill="#3DBE78" opacity="0.18"/><g transform="rotate(6 560 100)"><rect x="410" y="2" width="300" height="348.8" rx="24" fill="#183766"/><rect x="410" y="-6" width="300" height="348.8" rx="24" fill="#274F8E"/><circle cx="448.0" cy="26.400000000000002" r="19" fill="#1E4078"/><circle cx="504.0" cy="26.400000000000002" r="19" fill="#1E4078"/><circle cx="560.0" cy="26.400000000000002" r="19" fill="#1E4078"/><circle cx="616.0" cy="26.400000000000002" r="19" fill="#1E4078"/><circle cx="672.0" cy="26.400000000000002" r="19" fill="#1E4078"/><rect x="591" y="51.800000000000004" width="50" height="50" rx="9" fill="#1E4078"/><rect x="591" y="51.800000000000004" width="50" height="6" rx="3" fill="#13305E" opacity=".7"/><rect x="647" y="51.800000000000004" width="50" height="50" rx="9" fill="#1E4078"/><rect x="647" y="51.800000000000004" width="50" height="6" rx="3" fill="#13305E" opacity=".7"/><rect x="479" y="107.80000000000001" width="50" height="50" rx="9" fill="#1E4078"/><rect x="479" y="107.80000000000001" width="50" height="6" rx="3" fill="#13305E" opacity=".7"/><rect x="535" y="107.80000000000001" width="50" height="50" rx="9" fill="#1E4078"/><rect x="535" y="107.80000000000001" width="50" height="6" rx="3" fill="#13305E" opacity=".7"/><rect x="591" y="107.80000000000001" width="50" height="50" rx="9" fill="#1E4078"/><rect x="591" y="107.80000000000001" width="50" height="6" rx="3" fill="#13305E" opacity=".7"/><rect x="647" y="107.80000000000001" width="50" height="50" rx="9" fill="#1E4078"/><rect x="647" y="107.80000000000001" width="50" height="6" rx="3" fill="#13305E" opacity=".7"/><rect x="423" y="163.8" width="50" height="50" rx="9" fill="#1E4078"/><rect x="423" y="163.8" width="50" height="6" rx="3" fill="#13305E" opacity=".7"/><rect x="479" y="163.8" width="50" height="50" rx="9" fill="#1E4078"/><rect x="479" y="163.8" width="50" height="6" rx="3" fill="#13305E" opacity=".7"/><rect x="535" y="163.8" width="50" height="50" rx="9" fill="#1E4078"/><rect x="535" y="163.8" width="50" height="6" rx="3" fill="#13305E" opacity=".7"/><rect x="647" y="163.8" width="50" height="50" rx="9" fill="#1E4078"/><rect x="647" y="163.8" width="50" height="6" rx="3" fill="#13305E" opacity=".7"/><rect x="423" y="219.8" width="50" height="50" rx="9" fill="#1E4078"/><rect x="423" y="219.8" width="50" height="6" rx="3" fill="#13305E" opacity=".7"/><rect x="479" y="219.8" width="50" height="50" rx="9" fill="#1E4078"/><rect x="479" y="219.8" width="50" height="6" rx="3" fill="#13305E" opacity=".7"/><rect x="535" y="219.8" width="50" height="50" rx="9" fill="#1E4078"/><rect x="535" y="219.8" width="50" height="6" rx="3" fill="#13305E" opacity=".7"/><rect x="591" y="219.8" width="50" height="50" rx="9" fill="#1E4078"/><rect x="591" y="219.8" width="50" height="6" rx="3" fill="#13305E" opacity=".7"/><rect x="647" y="219.8" width="50" height="50" rx="9" fill="#1E4078"/><rect x="647" y="219.8" width="50" height="6" rx="3" fill="#13305E" opacity=".7"/><rect x="423" y="54.800000000000004" width="50" height="50" rx="9" fill="#B7C3D6"/><rect x="423" y="51.800000000000004" width="50" height="50" rx="9" fill="#fff"/><rect x="441.0" y="51.800000000000004" width="14" height="50" fill="#C9D3E3"/><rect x="479" y="54.800000000000004" width="106" height="50" rx="9" fill="#B7C3D6"/><rect x="479" y="51.800000000000004" width="106" height="50" rx="9" fill="#fff"/><path d="M504.0 51.800000000000004 L560.0 101.80000000000001 M560.0 51.800000000000004 L504.0 101.80000000000001" stroke="#C9D3E3" stroke-width="13"/><rect x="423" y="110.80000000000001" width="50" height="50" rx="9" fill="#B7C3D6"/><rect x="423" y="107.80000000000001" width="50" height="50" rx="9" fill="#fff"/><rect x="441.0" y="107.80000000000001" width="14" height="50" fill="#C9D3E3"/><rect x="591" y="166.8" width="50" height="50" rx="9" fill="#B7C3D6"/><rect x="591" y="163.8" width="50" height="50" rx="9" fill="#fff"/><rect x="609.0" y="163.8" width="14" height="50" fill="#C9D3E3"/><circle cx="448.0" cy="28.400000000000002" r="15" fill="#000" opacity=".22"/><circle cx="448.0" cy="26.400000000000002" r="15" fill="#E23B3B"/><circle cx="451.0" cy="29.400000000000002" r="15" fill="none" stroke="#000" stroke-opacity=".14" stroke-width="5" clip-path="none"/><circle cx="442.3" cy="20.1" r="4.5" fill="#fff" opacity=".6"/><text x="448.0" y="31.900000000000002" text-anchor="middle" font-family="Arial Rounded MT Bold,Arial,sans-serif" font-weight="700" font-size="15" fill="#fff">1</text><circle cx="504.0" cy="28.400000000000002" r="15" fill="#000" opacity=".22"/><circle cx="504.0" cy="26.400000000000002" r="15" fill="#F08A24"/><circle cx="507.0" cy="29.400000000000002" r="15" fill="none" stroke="#000" stroke-opacity=".14" stroke-width="5" clip-path="none"/><circle cx="498.3" cy="20.1" r="4.5" fill="#fff" opacity=".6"/><text x="504.0" y="31.900000000000002" text-anchor="middle" font-family="Arial Rounded MT Bold,Arial,sans-serif" font-weight="700" font-size="15" fill="#fff">2</text><circle cx="560.0" cy="28.400000000000002" r="15" fill="#000" opacity=".22"/><circle cx="560.0" cy="26.400000000000002" r="15" fill="#22A55B"/><circle cx="563.0" cy="29.400000000000002" r="15" fill="none" stroke="#000" stroke-opacity=".14" stroke-width="5" clip-path="none"/><circle cx="554.3" cy="20.1" r="4.5" fill="#fff" opacity=".6"/><text x="560.0" y="31.900000000000002" text-anchor="middle" font-family="Arial Rounded MT Bold,Arial,sans-serif" font-weight="700" font-size="15" fill="#fff">3</text><circle cx="616.0" cy="28.400000000000002" r="15" fill="#000" opacity=".22"/><circle cx="616.0" cy="26.400000000000002" r="15" fill="#2F6FE0"/><circle cx="619.0" cy="29.400000000000002" r="15" fill="none" stroke="#000" stroke-opacity=".14" stroke-width="5" clip-path="none"/><circle cx="610.3" cy="20.1" r="4.5" fill="#fff" opacity=".6"/><text x="616.0" y="31.900000000000002" text-anchor="middle" font-family="Arial Rounded MT Bold,Arial,sans-serif" font-weight="700" font-size="15" fill="#fff">4</text><circle cx="672.0" cy="28.400000000000002" r="15" fill="#000" opacity=".22"/><circle cx="672.0" cy="26.400000000000002" r="15" fill="#8E5BD8"/><circle cx="675.0" cy="29.400000000000002" r="15" fill="none" stroke="#000" stroke-opacity=".14" stroke-width="5" clip-path="none"/><circle cx="666.3" cy="20.1" r="4.5" fill="#fff" opacity=".6"/><text x="672.0" y="31.900000000000002" text-anchor="middle" font-family="Arial Rounded MT Bold,Arial,sans-serif" font-weight="700" font-size="15" fill="#fff">5</text><rect x="594" y="110.80000000000001" width="44" height="44" rx="7" fill="none" stroke="#fff" stroke-width="3" stroke-dasharray="6 5"/></g><g transform="translate(332 104) rotate(-14)"><rect x="3" y="6" width="50" height="50" rx="9" fill="#B7C3D6"/><rect x="3" y="3" width="50" height="50" rx="9" fill="#fff"/><rect x="21.0" y="3" width="14" height="50" fill="#C9D3E3"/></g><g transform="translate(292 18) rotate(10) scale(.8)"><rect x="3" y="6" width="106" height="50" rx="9" fill="#B7C3D6"/><rect x="3" y="3" width="106" height="50" rx="9" fill="#fff"/><path d="M28.0 3 L84.0 53 M84.0 3 L28.0 53" stroke="#C9D3E3" stroke-width="13"/></g><g transform="translate(386 150) rotate(-18)">
<circle cx="8" cy="-6" r="22" fill="none" stroke="#fff" stroke-width="4" opacity=".9"/>
<circle cx="8" cy="-6" r="34" fill="none" stroke="#fff" stroke-width="3" opacity=".5"/>
<path d="M0 0 v-20 a8 8 0 0 1 16 0 v26 l8-4 a8 8 0 0 1 10 3 l8 6 a8 8 0 0 1 10 2 l2 30 q0 18 -20 22 h-18 q-14 0 -22 -14 l-14 -26 a8 8 0 0 1 12 -10z" fill="#FFE2C4" stroke="#1F2A44" stroke-width="4" stroke-linejoin="round"/>
</g>
</svg>